<?xml version="1.0" encoding="utf-8"?>
<!-- Generator: Adobe Illustrator 22.0.1, SVG Export Plug-In . SVG Version: 6.00 Build 0)  -->
<svg version="1.1" id="Layer_1" xmlns="http://www.w3.org/2000/svg" xmlns:xlink="http://www.w3.org/1999/xlink" x="0px" y="0px"
	 viewBox="0 0 64 64" style="enable-background:new 0 0 64 64;" xml:space="preserve">
<style type="text/css">
	.st0{fill:#283290;}
	.st1{fill:#FFFFFF;}
</style>
<g>
	<path class="st0" d="M31.9,0.6C14.7,0.6,0.8,14.7,0.8,32s14,31.3,31.2,31.3S63.2,49.2,63.2,32S49.1,0.6,31.9,0.6z"/>
	<path class="st1" d="M31.8,37c-2.8,0-5-2.3-5-5.1c0-2.8,2.3-5.1,5-5.1s5,2.3,5,5.1C36.8,34.8,34.6,37,31.8,37z"/>
	<path class="st1" d="M45.6,37c-2.8,0-5-2.3-5-5.1c0-2.8,2.3-5.1,5-5.1s5,2.3,5,5.1C50.6,34.8,48.4,37,45.6,37z"/>
	<path class="st1" d="M18,37c-2.8,0-5-2.3-5-5.1c0-2.8,2.3-5.1,5-5.1s5,2.3,5,5.1S20.9,37,18,37z"/>
</g>
</svg>
