<?xml version="1.0" encoding="utf-8"?>
<!-- Generator: Adobe Illustrator 23.0.1, SVG Export Plug-In . SVG Version: 6.00 Build 0)  -->
<svg version="1.1" id="Layer_1" xmlns="http://www.w3.org/2000/svg" xmlns:xlink="http://www.w3.org/1999/xlink" x="0px" y="0px"
	 viewBox="0 0 64 64" style="enable-background:new 0 0 64 64;" xml:space="preserve">
<style type="text/css">
	.st0{fill:#283290;}
</style>
<g>
	<path class="st0" d="M40.6,49.7c-4.7,0.4-7.9-2-10.3-5.8c-0.7-1.1-1.3-2.3-2.1-3.4c-0.8-1.2-1.9-1.8-3.4-1.2
		c-1.2,0.5-2,1.9-1.6,3.4c0.4,1.5,0.9,3,1.6,4.4c0.5,1.1,0.3,1.7-0.7,2c-1.6,0.5-3.3,0.8-5,1.2c-0.7,0.1-1.3,0.2-2,0.2
		c0,0.2-0.1,0.4-0.1,0.6c1.8,0.7,3.6,1.6,5.6,2c2.5,0.5,5,0.6,7.5,0.7c3.2,0.1,5.2,1.2,5.7,3.5c0.5,2.3-0.9,4.3-3.7,5.5
		c-3.3,1.5-6.7,1.3-10,0.3c-2.9-0.9-5.8-2-8.5-3.6c-4.7-2.7-6.9-8.6-5.5-14c1.6-6.2,4.5-11.8,8-17.1c2.2-3.3,5.3-4.8,9.3-4.7
		c5.2,0.1,10.3,0.1,15.5,0.1c3.5,0,6.1,1.6,7.9,4.4c2.2,3.5,4.3,7.1,6.1,10.8c2,4.3,1.5,8.5-1.5,12.3c-2.6,3.2-5.4,6.1-9.7,6.9
		c-1.2,0.2-2.6,0.2-3.7-0.1c-2.5-0.6-3.5-3.2-2.1-5.4C38.7,51.7,39.7,50.7,40.6,49.7z M32.9,40.8c0,4,3.1,7.2,7,7.2
		c4,0,7.2-3.2,7.2-7.3c0-3.9-3.1-7-7-7.1C36.1,33.7,32.9,36.8,32.9,40.8z"/>
	<path class="st0" d="M42.4,10.7c-0.1,6-4.9,10.5-10.8,10.4c-5.8-0.1-10.2-5-10.1-11.1c0.1-5.5,5.1-10.2,10.7-10
		C38,0.2,42.6,5.1,42.4,10.7z"/>
</g>
</svg>
