<?xml version="1.0" encoding="utf-8"?>
<!-- Generator: Adobe Illustrator 23.0.1, SVG Export Plug-In . SVG Version: 6.00 Build 0)  -->
<svg version="1.1" id="Layer_1" xmlns="http://www.w3.org/2000/svg" xmlns:xlink="http://www.w3.org/1999/xlink" x="0px" y="0px"
	 viewBox="0 0 64 64" style="enable-background:new 0 0 64 64;" xml:space="preserve">
<style type="text/css">
	.st0{fill:#283290;}
</style>
<g>
	<path class="st0" d="M31.7,0c0.7,0.2,1.4,0.3,2,0.5c3.5,1.2,5.8,4.6,5.7,8.3c-0.2,3.7-2.8,6.9-6.4,7.8c-4.9,1.2-9.7-2.1-10.3-7.1
		C22,4.9,25.4,0.5,30,0.1c0.1,0,0.2,0,0.2-0.1C30.7,0,31.2,0,31.7,0z"/>
	<path class="st0" d="M20,34.9c-0.1,0.1-0.2,0.2-0.3,0.3c-1.1,1.1-2.2,2.3-3.3,3.4c-1.2,1.2-2.9,1.5-4.3,0.7c-1.7-0.9-2.2-3-1.2-4.8
		c0.2-0.3,0.4-0.7,0.7-0.9c3.6-3.7,7.2-7.5,10.9-11.1c0.5-0.5,1.3-0.9,2-1.2c2-0.9,4.1-1.4,6.3-1.6c2.8-0.2,5.6,0.2,8.2,1.4
		c1.1,0.5,2.1,1.1,2.9,1.9c3.5,3.5,7,7,10.4,10.5c1.2,1.2,1.5,3.1,0.7,4.7c-0.6,1.2-1.7,1.6-2.9,1.6c-0.9,0-1.7-0.4-2.4-1
		c-1.2-1.2-2.3-2.3-3.5-3.5c0,0,0,0-0.1,0c0,0.2,0,0.4,0,0.6c0,1,0,2,0,3c0,0.3-0.3,0.5-0.5,0.6c-0.7,0.2-1.4,0.5-2.2,0.6
		c-3.9,0.6-7.8,0.7-11.7,0.6c-1.9-0.1-3.8-0.2-5.7-0.4c-0.9-0.1-1.9-0.3-2.8-0.5c-0.2,0-0.4-0.2-0.6-0.2c-0.4-0.2-0.6-0.4-0.6-0.8
		c0-1,0-2,0-3c0-0.3,0-0.5,0-0.8C20.1,34.9,20.1,34.9,20,34.9z"/>
	<path class="st0" d="M20.2,42.1c1.8,1.8,3.6,3.6,5.4,5.4c-1.7,1.7-3.4,3.4-5.1,5.1c0.1,0.1,0.2,0.2,0.3,0.3c2,2.1,4,4.1,6,6.2
		c0.9,0.9,1.1,2.1,0.6,3.2c-0.5,1.1-1.6,1.7-2.8,1.7c-0.8,0-1.5-0.4-2.1-0.9c-0.8-0.8-1.5-1.5-2.3-2.3c-2.4-2.4-4.9-4.8-7.3-7.3
		c-1.2-1.2-1.2-3,0-4.2c2.4-2.3,4.7-4.6,7.1-7C20.1,42.2,20.2,42.2,20.2,42.1z"/>
	<path class="st0" d="M43,41.9c1.5,1.5,3.1,3.1,4.6,4.6c0.7,0.7,1.3,1.3,2,2c0.3,0.3,0.6,0.6,0.9,0.9c0.9,0.9,0.9,2.7-0.2,3.8
		c-1.1,1.1-2.2,2.2-3.3,3.3c-2.2,2.2-4.3,4.3-6.5,6.5C39.4,64,37.6,64,36.5,63c-1.2-1.1-1.2-2.9-0.1-4.2c0.8-0.8,1.6-1.6,2.3-2.4
		c1.3-1.3,2.6-2.6,4-4c-0.9-0.9-1.7-1.7-2.6-2.6c-0.9-0.9-1.7-1.7-2.5-2.5C39.4,45.5,41.2,43.7,43,41.9z"/>
</g>
</svg>
