<?xml version="1.0" encoding="utf-8"?>
<!-- Generator: Adobe Illustrator 23.0.1, SVG Export Plug-In . SVG Version: 6.00 Build 0)  -->
<svg version="1.1" id="Layer_1" xmlns="http://www.w3.org/2000/svg" xmlns:xlink="http://www.w3.org/1999/xlink" x="0px" y="0px"
	 viewBox="0 0 64 64" style="enable-background:new 0 0 64 64;" xml:space="preserve">
<style type="text/css">
	.st0{fill:#283290;}
</style>
<g>
	<path class="st0" d="M40.2,14.9c-2.2-1.1-4.6-2-7-2.6C28.2,11.2,21.9,12.4,19,17c-2.8,4.4-1.3,9.3,1.4,13.3
		c2.1,3.2,5.5,6.4,5.9,10.4c0.1,1.2-0.2,2.4-0.6,3.4c-1.2,2.6-2.2,5.6-2.4,8.5c-0.6,6,5.2,12.6,11.4,11.1c2.6-0.6,5.2-2.6,6.8-5.8
		c1-2.1,1.7-4.6,2.3-6.8c1.6-5.3,2.3-10.8,2.8-16.2c0.5-5.5,1.1-11.6-1.8-16C43.8,17.3,42.4,15.9,40.2,14.9z"/>
	<ellipse class="st0" cx="46" cy="13.4" rx="2.2" ry="3.4"/>
	<ellipse class="st0" cx="41.1" cy="9.3" rx="2.3" ry="3.4"/>
	<ellipse class="st0" cx="35.4" cy="7" rx="2.6" ry="4"/>
	<ellipse class="st0" cx="28.7" cy="5.9" rx="3" ry="4.5"/>
	<ellipse class="st0" cx="20.1" cy="6.5" rx="4.3" ry="6.5"/>
</g>
</svg>
