<?xml version="1.0" encoding="utf-8"?>
<!-- Generator: Adobe Illustrator 22.0.1, SVG Export Plug-In . SVG Version: 6.00 Build 0)  -->
<svg version="1.1" id="Layer_1" xmlns="http://www.w3.org/2000/svg" xmlns:xlink="http://www.w3.org/1999/xlink" x="0px" y="0px"
	 viewBox="0 0 64 64" style="enable-background:new 0 0 64 64;" xml:space="preserve">
<style type="text/css">
	.st0{fill:#283290;}
</style>
<g>
	<path class="st0" d="M38,0.7c0.4,0,0.7,0,1.1,0c1.5,0.2,2.6,1,3.6,2.1c0.7,0.9,1.5,1.1,2.6,1c2.8-0.2,5,1.3,5.8,4c-0.3,0-0.7,0-1,0
		c-2.7,0.1-4.9,2.4-5,5c0,0.8,0.3,1.2,1,1.3c0.6,0,1.1-0.4,1.1-1.2c0.1-1.8,1.4-3,3.2-3c1.4,0,2.8,0,4.3,0c0.5,0,0.8,0.1,1.2,0.4
		c2.4,2.2,3.5,4.9,3.4,8.2c-0.1,2.2,0.2,4.3,1.4,6.3c0.3,0.6,0.6,1.2,0.8,1.8c0.2,0.6,0.3,1.2,0.5,1.8c0,0.8,0,1.6,0,2.3
		c0,0.1-0.1,0.1-0.1,0.2c-0.3,2.9-2.1,5-3.9,7.2c-0.9-1-1.8-2-2.6-3.1c-1.7-2.4-4-3.7-7-3.8c-3.7-0.1-6.2-2.6-6.4-6.3
		c0-0.7-0.4-1.1-1.1-1.1c-0.6,0-1.1,0.5-1,1.1c0.1,0.8,0.2,1.7,0.4,2.5c1.2,3.5,4.2,5.7,7.9,5.8c2,0.1,3.7,0.8,5,2.4
		c0.9,1.1,1.8,2.2,2.8,3.3c0.5,0.6,0.8,1.1,0.8,2c-0.1,3.7-1.5,6.7-4.4,9.1c-0.7,0.6-1.8,0.8-1.9,1.9c-0.2-1-0.2-2.1-0.6-3.1
		c-0.9-2.9-3.9-5-6.8-5c-0.7,0-1.1,0.4-1.2,1c0,0.6,0.4,1,1.1,1.1c0.1,0,0.2,0,0.3,0c2.6,0.1,4.8,2.4,4.9,5c0,1.5,0,3,0,4.6
		c0,0.2-0.2,0.5-0.4,0.6c-0.6,0.3-1.2,0.5-1.7,0.8c-0.6,0.2-0.9,0.6-1,1.3c-0.1,0.6-0.2,1.3-0.5,1.9c-0.7,1.8-2.1,2.9-4.1,3
		c-2,0-3.7-0.9-5-2.3c-2.2-2.2-3-4.9-3-7.9c0-15.9,0-31.8,0-47.7C32.5,4,33,3,33.9,2.4c0.8-0.5,1.6-0.9,2.5-1.3
		C36.9,0.8,37.5,0.8,38,0.7z M39.4,13.3c-0.2,0-0.5,0-0.8,0.1c-0.8,0.1-1.3,0.5-1.2,1.2c0,0.7,0.5,1,1.4,0.9c3-0.2,5.1,1.3,5.7,4.3
		c0.8,3.7,4.5,6.3,8.1,5.6c0.7-0.1,1.1-0.6,1-1.2c-0.1-0.6-0.6-0.9-1.3-0.9c-0.5,0-1,0.1-1.5,0c-2.3-0.4-3.7-1.8-4.3-4.4
		C45.7,15.7,42.9,13.4,39.4,13.3z M36.6,46.9c0,2,0.7,3.6,2,5c0.4,0.4,0.9,0.5,1.3,0.2c0.5-0.3,0.6-0.7,0.4-1.2
		c-0.1-0.2-0.2-0.4-0.4-0.5c-1.2-1.3-1.6-2.9-1.2-4.6c0.2-1,0.8-1.8,1.5-2.5c2.6-2.8,2.6-7.2-0.1-9.8c-0.5-0.5-1.1-0.5-1.5-0.1
		c-0.5,0.4-0.5,1,0,1.5c2,2.4,1.9,4.9-0.2,7.2C37.2,43.4,36.6,45,36.6,46.9z"/>
	<path class="st0" d="M2,31c0-0.8,0-1.6,0-2.3c0-0.1,0.1-0.3,0.1-0.4c0.3-1,0.5-2.2,1.1-3.1c1.2-2.1,1.5-4.3,1.5-6.6
		c-0.1-3.1,1-5.8,3.4-8c0.3-0.3,0.7-0.5,1.2-0.5c1.4,0,2.8,0,4.3,0c2.4,0,4.2,1.7,4.3,4.1c0.1,0.8,0.5,1.2,1.1,1.2
		c0.6,0,1-0.5,1-1.3c-0.1-2.9-2.3-5.4-5.1-5.9c-0.6-0.1-1.3-0.1-2-0.2c0.2-0.4,0.4-0.7,0.6-1c0.8-1.4,1.9-2.5,3.6-2.8
		c0.7-0.1,1.4-0.2,2.1-0.1c0.8,0.1,1.4-0.1,1.9-0.7c1.1-1.2,2.3-2.1,4-2.5c0.2,0,0.4-0.1,0.6-0.2c0.3,0,0.7,0,1,0
		c0.1,0,0.2,0.1,0.3,0.1c1.5,0.4,2.8,1.2,3.8,2.4c0.5,0.7,0.8,1.4,0.8,2.3c0,2.7,0,5.4,0,8.1c0,0.2,0,0.3,0,0.7
		c-0.5-0.7-1-0.7-1.6-0.7C25.4,14,22.1,17.5,22,22c0,0.9-0.2,1.8-0.6,2.6c-1.1,2.4-3,3.6-5.7,3.7c-0.7,0-1.1,0.5-1.1,1.1
		c0,0.6,0.5,1,1.2,1c0.2,0,0.4,0,0.6,0c4.5-0.5,7.6-4,7.7-8.5c0.1-3.2,2.6-5.9,5.8-6.2c0.5,0,1.1-0.2,1.6-0.4c0,0,0,0.1,0,0.3
		c0,12.6,0,25.2,0,37.8c0,1.4-0.2,2.7-0.7,4.1c-1,2.7-2.7,4.7-5.5,5.6c-2.8,0.9-5.3-0.4-6.1-3.2c-0.1-0.4-0.2-0.9-0.3-1.3
		c-0.1-0.7-0.5-1.1-1.1-1.4c-0.5-0.2-1.1-0.4-1.6-0.7c-0.3-0.1-0.5-0.4-0.5-0.8c0-1.4,0-2.8,0-4.2c0-2.9,2.2-5.1,5-5.3
		c0.8,0,1.3-0.5,1.3-1.1c0-0.6-0.5-1-1.3-1c-3.3,0.1-6.3,2.6-6.9,5.9c-0.1,0.8-0.1,1.6-0.2,2.2c-0.3-0.3-0.5-0.9-0.9-1.1
		c-3.6-2.2-5.2-5.5-5.4-9.6c0-0.8-0.2-1.4-0.6-2c-0.8-1.1-1.6-2.1-2.4-3.2c-0.9-1.1-1.6-2.4-1.9-3.8C2.2,31.9,2.1,31.5,2,31z
		 M23,44.9c0,1.8,0.7,3.6,2.1,5.1c0.5,0.6,1.1,0.6,1.6,0.2c0.5-0.4,0.5-1.1,0-1.6c-2-2.3-2.1-5.3,0-7.6c0.6-0.6,0.6-1.1,0-1.7
		c-2-2.3-2-5.3,0-7.6c0.5-0.6,0.5-1.2,0-1.6c-0.5-0.4-1-0.3-1.6,0.2c-2.4,2.5-2.8,6.5-0.8,9.4c0.2,0.3,0.2,0.6,0,0.9
		C23.5,41.7,23.1,43.1,23,44.9z M15.8,36.8c0-2-1.1-3.7-2.7-4.2c-0.6-0.2-1.1,0-1.4,0.5c-0.2,0.5-0.1,1.1,0.4,1.4
		c1.5,0.9,1.8,1.5,1.3,3.2c-0.6,2,0.5,4.2,2.4,5c0.7,0.3,1.3,0.1,1.5-0.5c0.3-0.6,0-1.1-0.7-1.4c-1.1-0.6-1.6-1.5-1.2-2.8
		C15.6,37.6,15.7,37.1,15.8,36.8z M11.5,22.2c-2,0-3.7,1.2-4.2,2.7c-0.2,0.6,0,1.1,0.5,1.4c0.5,0.2,1.1,0.1,1.4-0.4
		c0.9-1.5,1.5-1.8,3.2-1.3c2,0.6,4.2-0.5,5-2.4c0.3-0.7,0.1-1.3-0.5-1.5c-0.6-0.3-1.1,0-1.4,0.7c-0.6,1.1-1.5,1.6-2.8,1.2
		C12.2,22.3,11.7,22.2,11.5,22.2z"/>
</g>
</svg>
